<svg width="360" height="508" viewBox="0 0 360 508" fill="none" xmlns="http://www.w3.org/2000/svg">
<rect width="360" height="508" fill="white"/>
<path d="M31.552 158.72V159.904H26.624V163.808H30.8V164.944H26.624V170H25.168V158.72H31.552ZM41.0854 161.216V170H39.6294V167.936C39.4054 168.651 39.0054 169.2 38.4294 169.584C37.864 169.957 37.2027 170.144 36.4454 170.144C35.432 170.144 34.6107 169.819 33.9814 169.168C33.352 168.507 33.0374 167.563 33.0374 166.336V161.216H34.4934V166.192C34.4934 167.067 34.7174 167.744 35.1654 168.224C35.6134 168.693 36.2214 168.928 36.9894 168.928C37.7894 168.928 38.4294 168.672 38.9094 168.16C39.3894 167.637 39.6294 166.88 39.6294 165.888V161.216H41.0854ZM44.874 158.16V170H43.418V158.16H44.874ZM48.6709 158.16V170H47.2149V158.16H48.6709ZM63.7329 170H62.2769L56.4209 161.088V170H54.9649V158.72H56.4209L62.2769 167.648V158.72H63.7329V170ZM69.6743 161.104C70.5276 161.104 71.2476 161.317 71.8343 161.744C72.4316 162.171 72.8476 162.741 73.0823 163.456V161.216H74.5383V170H73.0823V167.76C72.8476 168.475 72.4316 169.045 71.8343 169.472C71.2476 169.899 70.5276 170.112 69.6743 170.112C68.8956 170.112 68.2023 169.931 67.5943 169.568C66.9863 169.205 66.5063 168.688 66.1543 168.016C65.8129 167.333 65.6423 166.533 65.6423 165.616C65.6423 164.699 65.8129 163.899 66.1543 163.216C66.5063 162.533 66.9863 162.011 67.5943 161.648C68.2023 161.285 68.8956 161.104 69.6743 161.104ZM70.0903 162.4C69.1943 162.4 68.4743 162.688 67.9303 163.264C67.3969 163.829 67.1303 164.613 67.1303 165.616C67.1303 166.619 67.3969 167.408 67.9303 167.984C68.4743 168.549 69.1943 168.832 70.0903 168.832C70.6663 168.832 71.1783 168.699 71.6263 168.432C72.0849 168.165 72.4423 167.792 72.6983 167.312C72.9543 166.821 73.0823 166.256 73.0823 165.616C73.0823 164.976 72.9543 164.411 72.6983 163.92C72.4423 163.429 72.0849 163.056 71.6263 162.8C71.1783 162.533 70.6663 162.4 70.0903 162.4ZM87.6555 161.072C88.6795 161.072 89.5008 161.403 90.1195 162.064C90.7488 162.715 91.0635 163.659 91.0635 164.896V170H89.6075V165.024C89.6075 164.16 89.3942 163.499 88.9675 163.04C88.5515 162.581 87.9755 162.352 87.2395 162.352C86.4715 162.352 85.8528 162.608 85.3835 163.12C84.9248 163.621 84.6955 164.363 84.6955 165.344V170H83.2395V165.024C83.2395 164.16 83.0262 163.499 82.5995 163.04C82.1728 162.581 81.5968 162.352 80.8715 162.352C80.0928 162.352 79.4688 162.608 78.9995 163.12C78.5408 163.621 78.3115 164.363 78.3115 165.344V170H76.8555V161.216H78.3115V163.216C78.5248 162.523 78.9035 161.995 79.4475 161.632C80.0022 161.259 80.6368 161.072 81.3515 161.072C82.0982 161.072 82.7435 161.264 83.2875 161.648C83.8422 162.021 84.2368 162.576 84.4715 163.312C84.7168 162.597 85.1275 162.048 85.7035 161.664C86.2795 161.269 86.9302 161.072 87.6555 161.072ZM101.404 165.12C101.404 165.429 101.383 165.696 101.34 165.92H94.3163C94.3483 166.923 94.6309 167.675 95.1643 168.176C95.7083 168.677 96.3696 168.928 97.1483 168.928C97.8523 168.928 98.4389 168.752 98.9083 168.4C99.3883 168.037 99.6816 167.557 99.7883 166.96H101.34C101.234 167.568 100.994 168.112 100.62 168.592C100.258 169.072 99.7829 169.445 99.1963 169.712C98.6096 169.979 97.9483 170.112 97.2123 170.112C96.3696 170.112 95.6229 169.931 94.9723 169.568C94.3216 169.205 93.8096 168.688 93.4363 168.016C93.0736 167.333 92.8923 166.533 92.8923 165.616C92.8923 164.699 93.0736 163.899 93.4363 163.216C93.8096 162.533 94.3216 162.011 94.9723 161.648C95.6229 161.285 96.3696 161.104 97.2123 161.104C98.0656 161.104 98.8069 161.285 99.4363 161.648C100.076 162.011 100.562 162.496 100.892 163.104C101.234 163.712 101.404 164.384 101.404 165.12ZM99.9323 165.216C99.9643 164.565 99.8576 164.021 99.6123 163.584C99.3669 163.147 99.0309 162.821 98.6043 162.608C98.1776 162.395 97.7136 162.288 97.2123 162.288C96.4123 162.288 95.7403 162.539 95.1963 163.04C94.6523 163.531 94.3589 164.256 94.3163 165.216H99.9323Z" fill="#020202"/>
<rect x="24.5" y="182.5" width="311" height="39" rx="7.5" stroke="#020202"/>
<path d="M41.084 196.242V197.278H38.424V206H37.15V197.278H34.476V196.242H41.084ZM49.2602 198.328L44.6402 209.612H43.3242L44.8362 205.916L41.7422 198.328H43.1562L45.5642 204.544L47.9442 198.328H49.2602ZM51.8149 199.742C52.0669 199.303 52.4402 198.939 52.9349 198.65C53.4389 198.351 54.0222 198.202 54.6849 198.202C55.3662 198.202 55.9822 198.365 56.5329 198.692C57.0929 199.019 57.5316 199.481 57.8489 200.078C58.1662 200.666 58.3249 201.352 58.3249 202.136C58.3249 202.911 58.1662 203.601 57.8489 204.208C57.5316 204.815 57.0929 205.286 56.5329 205.622C55.9822 205.958 55.3662 206.126 54.6849 206.126C54.0316 206.126 53.4529 205.981 52.9489 205.692C52.4542 205.393 52.0762 205.025 51.8149 204.586V209.64H50.5409V198.328H51.8149V199.742ZM57.0229 202.136C57.0229 201.557 56.9062 201.053 56.6729 200.624C56.4396 200.195 56.1222 199.868 55.7209 199.644C55.3289 199.42 54.8949 199.308 54.4189 199.308C53.9522 199.308 53.5182 199.425 53.1169 199.658C52.7249 199.882 52.4076 200.213 52.1649 200.652C51.9316 201.081 51.8149 201.581 51.8149 202.15C51.8149 202.729 51.9316 203.237 52.1649 203.676C52.4076 204.105 52.7249 204.437 53.1169 204.67C53.5182 204.894 53.9522 205.006 54.4189 205.006C54.8949 205.006 55.3289 204.894 55.7209 204.67C56.1222 204.437 56.4396 204.105 56.6729 203.676C56.9062 203.237 57.0229 202.724 57.0229 202.136ZM67.0018 201.87C67.0018 202.113 66.9878 202.369 66.9598 202.64H60.8278C60.8745 203.396 61.1312 203.989 61.5978 204.418C62.0738 204.838 62.6478 205.048 63.3198 205.048C63.8705 205.048 64.3278 204.922 64.6918 204.67C65.0652 204.409 65.3265 204.063 65.4758 203.634H66.8478C66.6425 204.371 66.2318 204.973 65.6158 205.44C64.9998 205.897 64.2345 206.126 63.3198 206.126C62.5918 206.126 61.9385 205.963 61.3598 205.636C60.7905 205.309 60.3425 204.847 60.0158 204.25C59.6892 203.643 59.5258 202.943 59.5258 202.15C59.5258 201.357 59.6845 200.661 60.0018 200.064C60.3192 199.467 60.7625 199.009 61.3318 198.692C61.9105 198.365 62.5732 198.202 63.3198 198.202C64.0478 198.202 64.6918 198.361 65.2518 198.678C65.8118 198.995 66.2412 199.434 66.5398 199.994C66.8478 200.545 67.0018 201.17 67.0018 201.87ZM65.6858 201.604C65.6858 201.119 65.5785 200.703 65.3638 200.358C65.1492 200.003 64.8552 199.737 64.4818 199.56C64.1178 199.373 63.7118 199.28 63.2638 199.28C62.6198 199.28 62.0692 199.485 61.6118 199.896C61.1638 200.307 60.9072 200.876 60.8418 201.604H65.6858ZM79.0239 198.328L74.4039 209.612H73.0879L74.5999 205.916L71.5059 198.328H72.9199L75.3279 204.544L77.7079 198.328H79.0239ZM83.6506 206.126C82.9319 206.126 82.2786 205.963 81.6906 205.636C81.1119 205.309 80.6546 204.847 80.3186 204.25C79.9919 203.643 79.8286 202.943 79.8286 202.15C79.8286 201.366 79.9966 200.675 80.3326 200.078C80.6779 199.471 81.1446 199.009 81.7326 198.692C82.3206 198.365 82.9786 198.202 83.7066 198.202C84.4346 198.202 85.0926 198.365 85.6806 198.692C86.2686 199.009 86.7306 199.467 87.0666 200.064C87.4119 200.661 87.5846 201.357 87.5846 202.15C87.5846 202.943 87.4072 203.643 87.0526 204.25C86.7072 204.847 86.2359 205.309 85.6386 205.636C85.0412 205.963 84.3786 206.126 83.6506 206.126ZM83.6506 205.006C84.1079 205.006 84.5372 204.899 84.9386 204.684C85.3399 204.469 85.6619 204.147 85.9046 203.718C86.1566 203.289 86.2826 202.766 86.2826 202.15C86.2826 201.534 86.1612 201.011 85.9186 200.582C85.6759 200.153 85.3586 199.835 84.9666 199.63C84.5746 199.415 84.1499 199.308 83.6926 199.308C83.2259 199.308 82.7966 199.415 82.4046 199.63C82.0219 199.835 81.7139 200.153 81.4806 200.582C81.2472 201.011 81.1306 201.534 81.1306 202.15C81.1306 202.775 81.2426 203.303 81.4666 203.732C81.6999 204.161 82.0079 204.483 82.3906 204.698C82.7732 204.903 83.1932 205.006 83.6506 205.006ZM96.0636 198.328V206H94.7896V204.866C94.547 205.258 94.2063 205.566 93.7676 205.79C93.3383 206.005 92.8623 206.112 92.3396 206.112C91.7423 206.112 91.2056 205.991 90.7296 205.748C90.2536 205.496 89.8756 205.123 89.5956 204.628C89.325 204.133 89.1896 203.531 89.1896 202.822V198.328H90.4496V202.654C90.4496 203.41 90.641 203.993 91.0236 204.404C91.4063 204.805 91.929 205.006 92.5916 205.006C93.273 205.006 93.8096 204.796 94.2016 204.376C94.5936 203.956 94.7896 203.345 94.7896 202.542V198.328H96.0636ZM99.4887 199.574C99.7127 199.135 100.03 198.795 100.441 198.552C100.861 198.309 101.369 198.188 101.967 198.188V199.504H101.631C100.203 199.504 99.4887 200.279 99.4887 201.828V206H98.2147V198.328H99.4887V199.574ZM110.292 199.378H108.682V206H107.408V199.378H106.414V198.328H107.408V197.782C107.408 196.923 107.627 196.298 108.066 195.906C108.514 195.505 109.228 195.304 110.208 195.304V196.368C109.648 196.368 109.251 196.48 109.018 196.704C108.794 196.919 108.682 197.278 108.682 197.782V198.328H110.292V199.378ZM118.581 198.328V206H117.307V204.866C117.065 205.258 116.724 205.566 116.285 205.79C115.856 206.005 115.38 206.112 114.857 206.112C114.26 206.112 113.723 205.991 113.247 205.748C112.771 205.496 112.393 205.123 112.113 204.628C111.843 204.133 111.707 203.531 111.707 202.822V198.328H112.967V202.654C112.967 203.41 113.159 203.993 113.541 204.404C113.924 204.805 114.447 205.006 115.109 205.006C115.791 205.006 116.327 204.796 116.719 204.376C117.111 203.956 117.307 203.345 117.307 202.542V198.328H118.581ZM122.006 195.64V206H120.732V195.64H122.006ZM125.452 195.64V206H124.178V195.64H125.452ZM135.093 198.188C136.027 198.188 136.783 198.473 137.361 199.042C137.94 199.602 138.229 200.414 138.229 201.478V206H136.969V201.66C136.969 200.895 136.778 200.311 136.395 199.91C136.013 199.499 135.49 199.294 134.827 199.294C134.155 199.294 133.619 199.504 133.217 199.924C132.825 200.344 132.629 200.955 132.629 201.758V206H131.355V198.328H132.629V199.42C132.881 199.028 133.222 198.725 133.651 198.51C134.09 198.295 134.571 198.188 135.093 198.188ZM139.834 202.136C139.834 201.352 139.993 200.666 140.31 200.078C140.628 199.481 141.062 199.019 141.612 198.692C142.172 198.365 142.793 198.202 143.474 198.202C144.146 198.202 144.73 198.347 145.224 198.636C145.719 198.925 146.088 199.289 146.33 199.728V198.328H147.618V206H146.33V204.572C146.078 205.02 145.7 205.393 145.196 205.692C144.702 205.981 144.123 206.126 143.46 206.126C142.779 206.126 142.163 205.958 141.612 205.622C141.062 205.286 140.628 204.815 140.31 204.208C139.993 203.601 139.834 202.911 139.834 202.136ZM146.33 202.15C146.33 201.571 146.214 201.067 145.98 200.638C145.747 200.209 145.43 199.882 145.028 199.658C144.636 199.425 144.202 199.308 143.726 199.308C143.25 199.308 142.816 199.42 142.424 199.644C142.032 199.868 141.72 200.195 141.486 200.624C141.253 201.053 141.136 201.557 141.136 202.136C141.136 202.724 141.253 203.237 141.486 203.676C141.72 204.105 142.032 204.437 142.424 204.67C142.816 204.894 143.25 205.006 143.726 205.006C144.202 205.006 144.636 204.894 145.028 204.67C145.43 204.437 145.747 204.105 145.98 203.676C146.214 203.237 146.33 202.729 146.33 202.15ZM158.997 198.188C159.595 198.188 160.127 198.314 160.593 198.566C161.06 198.809 161.429 199.177 161.699 199.672C161.97 200.167 162.105 200.769 162.105 201.478V206H160.845V201.66C160.845 200.895 160.654 200.311 160.271 199.91C159.898 199.499 159.389 199.294 158.745 199.294C158.083 199.294 157.555 199.509 157.163 199.938C156.771 200.358 156.575 200.969 156.575 201.772V206H155.315V201.66C155.315 200.895 155.124 200.311 154.741 199.91C154.368 199.499 153.859 199.294 153.215 199.294C152.553 199.294 152.025 199.509 151.633 199.938C151.241 200.358 151.045 200.969 151.045 201.772V206H149.771V198.328H151.045V199.434C151.297 199.033 151.633 198.725 152.053 198.51C152.483 198.295 152.954 198.188 153.467 198.188C154.111 198.188 154.681 198.333 155.175 198.622C155.67 198.911 156.039 199.336 156.281 199.896C156.496 199.355 156.851 198.935 157.345 198.636C157.84 198.337 158.391 198.188 158.997 198.188ZM171.195 201.87C171.195 202.113 171.181 202.369 171.153 202.64H165.021C165.068 203.396 165.325 203.989 165.791 204.418C166.267 204.838 166.841 205.048 167.513 205.048C168.064 205.048 168.521 204.922 168.885 204.67C169.259 204.409 169.52 204.063 169.669 203.634H171.041C170.836 204.371 170.425 204.973 169.809 205.44C169.193 205.897 168.428 206.126 167.513 206.126C166.785 206.126 166.132 205.963 165.553 205.636C164.984 205.309 164.536 204.847 164.209 204.25C163.883 203.643 163.719 202.943 163.719 202.15C163.719 201.357 163.878 200.661 164.195 200.064C164.513 199.467 164.956 199.009 165.525 198.692C166.104 198.365 166.767 198.202 167.513 198.202C168.241 198.202 168.885 198.361 169.445 198.678C170.005 198.995 170.435 199.434 170.733 199.994C171.041 200.545 171.195 201.17 171.195 201.87ZM169.879 201.604C169.879 201.119 169.772 200.703 169.557 200.358C169.343 200.003 169.049 199.737 168.675 199.56C168.311 199.373 167.905 199.28 167.457 199.28C166.813 199.28 166.263 199.485 165.805 199.896C165.357 200.307 165.101 200.876 165.035 201.604H169.879Z" fill="#8D92A3"/>
<circle cx="180" cy="81" r="54.5" stroke="#8D92A3" stroke-dasharray="10 10"/>
<circle cx="180" cy="81" r="45" fill="#F0F0F0"/>
<path d="M172.776 72.676H168.324L167.47 75H166.434L170.004 65.34H171.11L174.666 75H173.63L172.776 72.676ZM172.482 71.864L170.55 66.572L168.618 71.864H172.482ZM175.791 71.164C175.791 70.38 175.95 69.694 176.267 69.106C176.584 68.5087 177.018 68.0513 177.569 67.734C178.129 67.4073 178.759 67.244 179.459 67.244C180.131 67.244 180.738 67.4073 181.279 67.734C181.82 68.0607 182.217 68.4853 182.469 69.008V64.64H183.449V75H182.469V73.292C182.236 73.824 181.853 74.2627 181.321 74.608C180.789 74.944 180.164 75.112 179.445 75.112C178.745 75.112 178.115 74.9487 177.555 74.622C177.004 74.2953 176.57 73.8333 176.253 73.236C175.945 72.6387 175.791 71.948 175.791 71.164ZM182.469 71.178C182.469 70.562 182.343 70.0207 182.091 69.554C181.839 69.0873 181.494 68.728 181.055 68.476C180.626 68.224 180.15 68.098 179.627 68.098C179.086 68.098 178.6 68.2193 178.171 68.462C177.742 68.7047 177.401 69.0593 177.149 69.526C176.906 69.9833 176.785 70.5293 176.785 71.164C176.785 71.7893 176.906 72.34 177.149 72.816C177.401 73.2827 177.742 73.642 178.171 73.894C178.6 74.1367 179.086 74.258 179.627 74.258C180.15 74.258 180.626 74.132 181.055 73.88C181.494 73.628 181.839 73.2687 182.091 72.802C182.343 72.3353 182.469 71.794 182.469 71.178ZM185.238 71.164C185.238 70.38 185.397 69.694 185.714 69.106C186.032 68.5087 186.466 68.0513 187.016 67.734C187.576 67.4073 188.206 67.244 188.906 67.244C189.578 67.244 190.185 67.4073 190.726 67.734C191.268 68.0607 191.664 68.4853 191.916 69.008V64.64H192.896V75H191.916V73.292C191.683 73.824 191.3 74.2627 190.768 74.608C190.236 74.944 189.611 75.112 188.892 75.112C188.192 75.112 187.562 74.9487 187.002 74.622C186.452 74.2953 186.018 73.8333 185.7 73.236C185.392 72.6387 185.238 71.948 185.238 71.164ZM191.916 71.178C191.916 70.562 191.79 70.0207 191.538 69.554C191.286 69.0873 190.941 68.728 190.502 68.476C190.073 68.224 189.597 68.098 189.074 68.098C188.533 68.098 188.048 68.2193 187.618 68.462C187.189 68.7047 186.848 69.0593 186.596 69.526C186.354 69.9833 186.232 70.5293 186.232 71.164C186.232 71.7893 186.354 72.34 186.596 72.816C186.848 73.2827 187.189 73.642 187.618 73.894C188.048 74.1367 188.533 74.258 189.074 74.258C189.597 74.258 190.073 74.132 190.502 73.88C190.941 73.628 191.286 73.2687 191.538 72.802C191.79 72.3353 191.916 71.794 191.916 71.178ZM167.52 89.028C167.52 89.868 167.244 90.5447 166.694 91.058C166.143 91.5713 165.317 91.828 164.216 91.828H162.242V96H161.262V86.214H164.216C165.308 86.214 166.129 86.4707 166.68 86.984C167.24 87.4973 167.52 88.1787 167.52 89.028ZM164.216 90.988C165.746 90.988 166.512 90.3347 166.512 89.028C166.512 88.3747 166.33 87.88 165.966 87.544C165.602 87.208 165.018 87.04 164.216 87.04H162.242V90.988H164.216ZM172.804 88.216C173.383 88.216 173.901 88.3373 174.358 88.58C174.825 88.8227 175.189 89.196 175.45 89.7C175.721 90.1947 175.856 90.8013 175.856 91.52V96H174.89V91.632C174.89 90.8013 174.68 90.1667 174.26 89.728C173.849 89.2893 173.285 89.07 172.566 89.07C171.829 89.07 171.241 89.3033 170.802 89.77C170.363 90.2367 170.144 90.9227 170.144 91.828V96H169.164V85.64H170.144V89.658C170.387 89.2007 170.741 88.846 171.208 88.594C171.684 88.342 172.216 88.216 172.804 88.216ZM181.369 96.112C180.651 96.112 180.002 95.9533 179.423 95.636C178.854 95.3093 178.401 94.852 178.065 94.264C177.739 93.6667 177.575 92.9713 177.575 92.178C177.575 91.3847 177.743 90.694 178.079 90.106C178.415 89.5087 178.873 89.0513 179.451 88.734C180.03 88.4073 180.679 88.244 181.397 88.244C182.116 88.244 182.765 88.4073 183.343 88.734C183.931 89.0513 184.389 89.5087 184.715 90.106C185.051 90.694 185.219 91.3847 185.219 92.178C185.219 92.962 185.051 93.6527 184.715 94.25C184.379 94.8473 183.917 95.3093 183.329 95.636C182.741 95.9533 182.088 96.112 181.369 96.112ZM181.369 95.258C181.873 95.258 182.34 95.146 182.769 94.922C183.199 94.6887 183.544 94.3433 183.805 93.886C184.076 93.4193 184.211 92.85 184.211 92.178C184.211 91.506 184.081 90.9413 183.819 90.484C183.558 90.0173 183.213 89.672 182.783 89.448C182.354 89.2147 181.887 89.098 181.383 89.098C180.879 89.098 180.413 89.2147 179.983 89.448C179.554 89.672 179.209 90.0173 178.947 90.484C178.695 90.9413 178.569 91.506 178.569 92.178C178.569 92.85 178.695 93.4193 178.947 93.886C179.209 94.3433 179.549 94.6887 179.969 94.922C180.399 95.146 180.865 95.258 181.369 95.258ZM188.28 89.182V93.928C188.28 94.3947 188.368 94.7167 188.546 94.894C188.723 95.0713 189.036 95.16 189.484 95.16H190.38V96H189.33C188.639 96 188.126 95.8413 187.79 95.524C187.454 95.1973 187.286 94.6653 187.286 93.928V89.182H186.222V88.356H187.286V86.438H188.28V88.356H190.38V89.182H188.28ZM195.342 96.112C194.623 96.112 193.975 95.9533 193.396 95.636C192.827 95.3093 192.374 94.852 192.038 94.264C191.711 93.6667 191.548 92.9713 191.548 92.178C191.548 91.3847 191.716 90.694 192.052 90.106C192.388 89.5087 192.845 89.0513 193.424 88.734C194.003 88.4073 194.651 88.244 195.37 88.244C196.089 88.244 196.737 88.4073 197.316 88.734C197.904 89.0513 198.361 89.5087 198.688 90.106C199.024 90.694 199.192 91.3847 199.192 92.178C199.192 92.962 199.024 93.6527 198.688 94.25C198.352 94.8473 197.89 95.3093 197.302 95.636C196.714 95.9533 196.061 96.112 195.342 96.112ZM195.342 95.258C195.846 95.258 196.313 95.146 196.742 94.922C197.171 94.6887 197.517 94.3433 197.778 93.886C198.049 93.4193 198.184 92.85 198.184 92.178C198.184 91.506 198.053 90.9413 197.792 90.484C197.531 90.0173 197.185 89.672 196.756 89.448C196.327 89.2147 195.86 89.098 195.356 89.098C194.852 89.098 194.385 89.2147 193.956 89.448C193.527 89.672 193.181 90.0173 192.92 90.484C192.668 90.9413 192.542 91.506 192.542 92.178C192.542 92.85 192.668 93.4193 192.92 93.886C193.181 94.3433 193.522 94.6887 193.942 94.922C194.371 95.146 194.838 95.258 195.342 95.258Z" fill="#8D92A3"/>
<path d="M26.624 245.904V249.76H30.912V250.88H26.624V254.816H31.392V256H25.168V244.72H31.392V245.904H26.624ZM44.0618 247.072C45.0858 247.072 45.9071 247.403 46.5258 248.064C47.1551 248.715 47.4698 249.659 47.4698 250.896V256H46.0138V251.024C46.0138 250.16 45.8004 249.499 45.3738 249.04C44.9578 248.581 44.3818 248.352 43.6458 248.352C42.8778 248.352 42.2591 248.608 41.7898 249.12C41.3311 249.621 41.1018 250.363 41.1018 251.344V256H39.6458V251.024C39.6458 250.16 39.4324 249.499 39.0058 249.04C38.5791 248.581 38.0031 248.352 37.2778 248.352C36.4991 248.352 35.8751 248.608 35.4058 249.12C34.9471 249.621 34.7178 250.363 34.7178 251.344V256H33.2618V247.216H34.7178V249.216C34.9311 248.523 35.3098 247.995 35.8538 247.632C36.4084 247.259 37.0431 247.072 37.7578 247.072C38.5044 247.072 39.1498 247.264 39.6938 247.648C40.2484 248.021 40.6431 248.576 40.8778 249.312C41.1231 248.597 41.5338 248.048 42.1098 247.664C42.6858 247.269 43.3364 247.072 44.0618 247.072ZM53.3305 247.104C54.1838 247.104 54.9038 247.317 55.4905 247.744C56.0878 248.171 56.5038 248.741 56.7385 249.456V247.216H58.1945V256H56.7385V253.76C56.5038 254.475 56.0878 255.045 55.4905 255.472C54.9038 255.899 54.1838 256.112 53.3305 256.112C52.5518 256.112 51.8585 255.931 51.2505 255.568C50.6425 255.205 50.1625 254.688 49.8105 254.016C49.4692 253.333 49.2985 252.533 49.2985 251.616C49.2985 250.699 49.4692 249.899 49.8105 249.216C50.1625 248.533 50.6425 248.011 51.2505 247.648C51.8585 247.285 52.5518 247.104 53.3305 247.104ZM53.7465 248.4C52.8505 248.4 52.1305 248.688 51.5865 249.264C51.0532 249.829 50.7865 250.613 50.7865 251.616C50.7865 252.619 51.0532 253.408 51.5865 253.984C52.1305 254.549 52.8505 254.832 53.7465 254.832C54.3225 254.832 54.8345 254.699 55.2825 254.432C55.7412 254.165 56.0985 253.792 56.3545 253.312C56.6105 252.821 56.7385 252.256 56.7385 251.616C56.7385 250.976 56.6105 250.411 56.3545 249.92C56.0985 249.429 55.7412 249.056 55.2825 248.8C54.8345 248.533 54.3225 248.4 53.7465 248.4ZM60.2558 244.64C60.2558 244.373 60.3464 244.16 60.5278 244C60.7091 243.829 60.9491 243.744 61.2478 243.744C61.5464 243.744 61.7864 243.829 61.9678 244C62.1491 244.16 62.2398 244.373 62.2398 244.64C62.2398 244.907 62.1491 245.125 61.9678 245.296C61.7864 245.456 61.5464 245.536 61.2478 245.536C60.9491 245.536 60.7091 245.456 60.5278 245.296C60.3464 245.125 60.2558 244.907 60.2558 244.64ZM61.9678 247.216V256H60.5118V247.216H61.9678ZM65.7646 244.16V256H64.3086V244.16H65.7646ZM78.6666 253.392H73.7066L72.7626 256H71.1946L75.3706 244.928H77.0186L81.1786 256H79.6106L78.6666 253.392ZM78.2506 252.256L76.1866 246.56L74.1226 252.256H78.2506ZM86.2524 247.104C87.1057 247.104 87.8257 247.317 88.4124 247.744C89.0097 248.171 89.4257 248.741 89.6604 249.456V244.16H91.1164V256H89.6604V253.76C89.4257 254.475 89.0097 255.045 88.4124 255.472C87.8257 255.899 87.1057 256.112 86.2524 256.112C85.4737 256.112 84.7804 255.931 84.1724 255.568C83.5644 255.205 83.0844 254.688 82.7324 254.016C82.391 253.333 82.2204 252.533 82.2204 251.616C82.2204 250.699 82.391 249.899 82.7324 249.216C83.0844 248.533 83.5644 248.011 84.1724 247.648C84.7804 247.285 85.4737 247.104 86.2524 247.104ZM86.6684 248.4C85.7724 248.4 85.0524 248.688 84.5084 249.264C83.975 249.829 83.7084 250.613 83.7084 251.616C83.7084 252.619 83.975 253.408 84.5084 253.984C85.0524 254.549 85.7724 254.832 86.6684 254.832C87.2444 254.832 87.7564 254.699 88.2044 254.432C88.663 254.165 89.0204 253.792 89.2764 253.312C89.5324 252.821 89.6604 252.256 89.6604 251.616C89.6604 250.976 89.5324 250.411 89.2764 249.92C89.0204 249.429 88.663 249.056 88.2044 248.8C87.7564 248.533 87.2444 248.4 86.6684 248.4ZM97.0336 247.104C97.887 247.104 98.607 247.317 99.1936 247.744C99.791 248.171 100.207 248.741 100.442 249.456V244.16H101.898V256H100.442V253.76C100.207 254.475 99.791 255.045 99.1936 255.472C98.607 255.899 97.887 256.112 97.0336 256.112C96.255 256.112 95.5616 255.931 94.9536 255.568C94.3456 255.205 93.8656 254.688 93.5136 254.016C93.1723 253.333 93.0016 252.533 93.0016 251.616C93.0016 250.699 93.1723 249.899 93.5136 249.216C93.8656 248.533 94.3456 248.011 94.9536 247.648C95.5616 247.285 96.255 247.104 97.0336 247.104ZM97.4496 248.4C96.5536 248.4 95.8336 248.688 95.2896 249.264C94.7563 249.829 94.4896 250.613 94.4896 251.616C94.4896 252.619 94.7563 253.408 95.2896 253.984C95.8336 254.549 96.5536 254.832 97.4496 254.832C98.0256 254.832 98.5376 254.699 98.9856 254.432C99.4443 254.165 99.8016 253.792 100.058 253.312C100.314 252.821 100.442 252.256 100.442 251.616C100.442 250.976 100.314 250.411 100.058 249.92C99.8016 249.429 99.4443 249.056 98.9856 248.8C98.5376 248.533 98.0256 248.4 97.4496 248.4ZM105.671 248.992C105.959 248.384 106.38 247.915 106.935 247.584C107.49 247.243 108.151 247.072 108.919 247.072V248.656H108.471C107.65 248.656 106.978 248.869 106.455 249.296C105.932 249.712 105.671 250.405 105.671 251.376V256H104.215V247.216H105.671V248.992ZM118.436 251.12C118.436 251.429 118.414 251.696 118.372 251.92H111.348C111.38 252.923 111.662 253.675 112.196 254.176C112.74 254.677 113.401 254.928 114.18 254.928C114.884 254.928 115.47 254.752 115.94 254.4C116.42 254.037 116.713 253.557 116.82 252.96H118.372C118.265 253.568 118.025 254.112 117.652 254.592C117.289 255.072 116.814 255.445 116.228 255.712C115.641 255.979 114.98 256.112 114.244 256.112C113.401 256.112 112.654 255.931 112.004 255.568C111.353 255.205 110.841 254.688 110.468 254.016C110.105 253.333 109.924 252.533 109.924 251.616C109.924 250.699 110.105 249.899 110.468 249.216C110.841 248.533 111.353 248.011 112.004 247.648C112.654 247.285 113.401 247.104 114.244 247.104C115.097 247.104 115.838 247.285 116.468 247.648C117.108 248.011 117.593 248.496 117.924 249.104C118.265 249.712 118.436 250.384 118.436 251.12ZM116.964 251.216C116.996 250.565 116.889 250.021 116.644 249.584C116.398 249.147 116.062 248.821 115.636 248.608C115.209 248.395 114.745 248.288 114.244 248.288C113.444 248.288 112.772 248.539 112.228 249.04C111.684 249.531 111.39 250.256 111.348 251.216H116.964ZM123.092 247.104C124.084 247.104 124.879 247.365 125.476 247.888C126.084 248.4 126.452 249.093 126.58 249.968H125.188C125.124 249.445 124.905 249.019 124.532 248.688C124.169 248.347 123.679 248.176 123.06 248.176C122.537 248.176 122.127 248.304 121.828 248.56C121.54 248.805 121.396 249.141 121.396 249.568C121.396 249.888 121.492 250.149 121.684 250.352C121.887 250.544 122.132 250.693 122.42 250.8C122.719 250.896 123.124 251.003 123.636 251.12C124.287 251.269 124.809 251.424 125.204 251.584C125.609 251.733 125.951 251.979 126.228 252.32C126.516 252.661 126.66 253.12 126.66 253.696C126.66 254.411 126.388 254.992 125.844 255.44C125.311 255.888 124.596 256.112 123.7 256.112C122.655 256.112 121.801 255.861 121.14 255.36C120.479 254.859 120.089 254.16 119.972 253.264H121.38C121.433 253.797 121.663 254.229 122.068 254.56C122.484 254.891 123.028 255.056 123.7 255.056C124.201 255.056 124.591 254.928 124.868 254.672C125.156 254.416 125.3 254.08 125.3 253.664C125.3 253.323 125.199 253.051 124.996 252.848C124.793 252.645 124.543 252.491 124.244 252.384C123.945 252.277 123.535 252.165 123.012 252.048C122.361 251.899 121.839 251.749 121.444 251.6C121.06 251.451 120.729 251.216 120.452 250.896C120.185 250.565 120.052 250.123 120.052 249.568C120.052 248.832 120.324 248.24 120.868 247.792C121.412 247.333 122.153 247.104 123.092 247.104ZM131.358 247.104C132.35 247.104 133.144 247.365 133.742 247.888C134.35 248.4 134.718 249.093 134.846 249.968H133.454C133.39 249.445 133.171 249.019 132.798 248.688C132.435 248.347 131.944 248.176 131.326 248.176C130.803 248.176 130.392 248.304 130.094 248.56C129.806 248.805 129.662 249.141 129.662 249.568C129.662 249.888 129.758 250.149 129.95 250.352C130.152 250.544 130.398 250.693 130.686 250.8C130.984 250.896 131.39 251.003 131.902 251.12C132.552 251.269 133.075 251.424 133.47 251.584C133.875 251.733 134.216 251.979 134.494 252.32C134.782 252.661 134.926 253.12 134.926 253.696C134.926 254.411 134.654 254.992 134.11 255.44C133.576 255.888 132.862 256.112 131.966 256.112C130.92 256.112 130.067 255.861 129.406 255.36C128.744 254.859 128.355 254.16 128.238 253.264H129.646C129.699 253.797 129.928 254.229 130.334 254.56C130.75 254.891 131.294 255.056 131.966 255.056C132.467 255.056 132.856 254.928 133.134 254.672C133.422 254.416 133.566 254.08 133.566 253.664C133.566 253.323 133.464 253.051 133.262 252.848C133.059 252.645 132.808 252.491 132.51 252.384C132.211 252.277 131.8 252.165 131.278 252.048C130.627 251.899 130.104 251.749 129.71 251.6C129.326 251.451 128.995 251.216 128.718 250.896C128.451 250.565 128.318 250.123 128.318 249.568C128.318 248.832 128.59 248.24 129.134 247.792C129.678 247.333 130.419 247.104 131.358 247.104Z" fill="#020202"/>
<rect x="24.5" y="268.5" width="311" height="39" rx="7.5" stroke="#020202"/>
<path d="M41.07 282.13V283.166H38.284V292H37.01V283.166H34.224V282.13H41.07ZM42.8685 284.314L45.3605 290.362L47.6705 284.314H49.0845L44.5205 295.64H43.0785L44.6745 291.874L41.4405 284.314H42.8685ZM54.4945 284.216C55.1758 284.216 55.7825 284.375 56.3145 284.692C56.8465 285.009 57.2618 285.467 57.5605 286.064C57.8685 286.661 58.0225 287.361 58.0225 288.164C58.0225 288.967 57.8685 289.667 57.5605 290.264C57.2618 290.852 56.8465 291.305 56.3145 291.622C55.7825 291.939 55.1758 292.098 54.4945 292.098C53.7478 292.098 53.1131 291.911 52.5905 291.538C52.0771 291.155 51.7225 290.656 51.5265 290.04V295.64H50.2525V284.314H51.5265V286.274C51.7225 285.658 52.0771 285.163 52.5905 284.79C53.1131 284.407 53.7478 284.216 54.4945 284.216ZM54.1305 285.35C53.6358 285.35 53.1878 285.467 52.7865 285.7C52.3851 285.924 52.0725 286.251 51.8485 286.68C51.6245 287.109 51.5125 287.604 51.5125 288.164C51.5125 288.724 51.6245 289.219 51.8485 289.648C52.0725 290.068 52.3851 290.395 52.7865 290.628C53.1878 290.861 53.6358 290.978 54.1305 290.978C54.9238 290.978 55.5538 290.731 56.0205 290.236C56.4965 289.732 56.7345 289.041 56.7345 288.164C56.7345 287.287 56.4965 286.601 56.0205 286.106C55.5538 285.602 54.9238 285.35 54.1305 285.35ZM66.7561 287.73C66.7561 288.001 66.7374 288.234 66.7001 288.43H60.5541C60.5821 289.307 60.8294 289.965 61.2961 290.404C61.7721 290.843 62.3507 291.062 63.0321 291.062C63.6481 291.062 64.1614 290.908 64.5721 290.6C64.9921 290.283 65.2487 289.863 65.3421 289.34H66.7001C66.6067 289.872 66.3967 290.348 66.0701 290.768C65.7527 291.188 65.3374 291.515 64.8241 291.748C64.3107 291.981 63.7321 292.098 63.0881 292.098C62.3507 292.098 61.6974 291.939 61.1281 291.622C60.5587 291.305 60.1107 290.852 59.7841 290.264C59.4667 289.667 59.3081 288.967 59.3081 288.164C59.3081 287.361 59.4667 286.661 59.7841 286.064C60.1107 285.467 60.5587 285.009 61.1281 284.692C61.6974 284.375 62.3507 284.216 63.0881 284.216C63.8347 284.216 64.4834 284.375 65.0341 284.692C65.5941 285.009 66.0187 285.434 66.3081 285.966C66.6067 286.498 66.7561 287.086 66.7561 287.73ZM65.4681 287.814C65.4961 287.245 65.4027 286.769 65.1881 286.386C64.9734 286.003 64.6794 285.719 64.3061 285.532C63.9327 285.345 63.5267 285.252 63.0881 285.252C62.3881 285.252 61.8001 285.471 61.3241 285.91C60.8481 286.339 60.5914 286.974 60.5541 287.814H65.4681ZM72.4134 284.314L74.9054 290.362L77.2154 284.314H78.6294L74.0654 295.64H72.6234L74.2194 291.874L70.9854 284.314H72.4134ZM83.2834 284.216C84.0207 284.216 84.6787 284.375 85.2574 284.692C85.8454 285.009 86.3027 285.467 86.6294 286.064C86.9654 286.661 87.1334 287.361 87.1334 288.164C87.1334 288.967 86.9654 289.667 86.6294 290.264C86.3027 290.852 85.8454 291.305 85.2574 291.622C84.6787 291.939 84.0207 292.098 83.2834 292.098C82.5461 292.098 81.8834 291.939 81.2954 291.622C80.7167 291.305 80.2594 290.852 79.9234 290.264C79.5874 289.667 79.4194 288.967 79.4194 288.164C79.4194 287.361 79.5874 286.661 79.9234 286.064C80.2594 285.467 80.7167 285.009 81.2954 284.692C81.8834 284.375 82.5461 284.216 83.2834 284.216ZM83.2834 285.336C82.8261 285.336 82.4014 285.439 82.0094 285.644C81.6267 285.849 81.3141 286.167 81.0714 286.596C80.8381 287.016 80.7214 287.539 80.7214 288.164C80.7214 288.78 80.8381 289.303 81.0714 289.732C81.3141 290.152 81.6267 290.465 82.0094 290.67C82.4014 290.875 82.8261 290.978 83.2834 290.978C83.7407 290.978 84.1607 290.875 84.5434 290.67C84.9354 290.465 85.2481 290.152 85.4814 289.732C85.7241 289.303 85.8454 288.78 85.8454 288.164C85.8454 287.539 85.7241 287.016 85.4814 286.596C85.2481 286.167 84.9354 285.849 84.5434 285.644C84.1607 285.439 83.7407 285.336 83.2834 285.336ZM95.6255 284.314V292H94.3515V290.194C94.1555 290.819 93.8055 291.3 93.3015 291.636C92.8068 291.963 92.2282 292.126 91.5655 292.126C90.6788 292.126 89.9602 291.841 89.4095 291.272C88.8588 290.693 88.5835 289.867 88.5835 288.794V284.314H89.8575V288.668C89.8575 289.433 90.0535 290.026 90.4455 290.446C90.8375 290.857 91.3695 291.062 92.0415 291.062C92.7415 291.062 93.3015 290.838 93.7215 290.39C94.1415 289.933 94.3515 289.27 94.3515 288.402V284.314H95.6255ZM98.9405 285.868C99.1925 285.336 99.5612 284.925 100.047 284.636C100.532 284.337 101.111 284.188 101.783 284.188V285.574H101.391C100.672 285.574 100.084 285.761 99.6265 286.134C99.1692 286.498 98.9405 287.105 98.9405 287.954V292H97.6665V284.314H98.9405V285.868ZM113.569 287.73C113.569 288.001 113.55 288.234 113.513 288.43H107.367C107.395 289.307 107.642 289.965 108.109 290.404C108.585 290.843 109.163 291.062 109.845 291.062C110.461 291.062 110.974 290.908 111.385 290.6C111.805 290.283 112.061 289.863 112.155 289.34H113.513C113.419 289.872 113.209 290.348 112.883 290.768C112.565 291.188 112.15 291.515 111.637 291.748C111.123 291.981 110.545 292.098 109.901 292.098C109.163 292.098 108.51 291.939 107.941 291.622C107.371 291.305 106.923 290.852 106.597 290.264C106.279 289.667 106.121 288.967 106.121 288.164C106.121 287.361 106.279 286.661 106.597 286.064C106.923 285.467 107.371 285.009 107.941 284.692C108.51 284.375 109.163 284.216 109.901 284.216C110.647 284.216 111.296 284.375 111.847 284.692C112.407 285.009 112.831 285.434 113.121 285.966C113.419 286.498 113.569 287.086 113.569 287.73ZM112.281 287.814C112.309 287.245 112.215 286.769 112.001 286.386C111.786 286.003 111.492 285.719 111.119 285.532C110.745 285.345 110.339 285.252 109.901 285.252C109.201 285.252 108.613 285.471 108.137 285.91C107.661 286.339 107.404 286.974 107.367 287.814H112.281ZM124.685 284.188C125.581 284.188 126.3 284.477 126.841 285.056C127.392 285.625 127.667 286.451 127.667 287.534V292H126.393V287.646C126.393 286.89 126.206 286.311 125.833 285.91C125.469 285.509 124.965 285.308 124.321 285.308C123.649 285.308 123.108 285.532 122.697 285.98C122.296 286.419 122.095 287.067 122.095 287.926V292H120.821V287.646C120.821 286.89 120.634 286.311 120.261 285.91C119.888 285.509 119.384 285.308 118.749 285.308C118.068 285.308 117.522 285.532 117.111 285.98C116.71 286.419 116.509 287.067 116.509 287.926V292H115.235V284.314H116.509V286.064C116.696 285.457 117.027 284.995 117.503 284.678C117.988 284.351 118.544 284.188 119.169 284.188C119.822 284.188 120.387 284.356 120.863 284.692C121.348 285.019 121.694 285.504 121.899 286.148C122.114 285.523 122.473 285.042 122.977 284.706C123.481 284.361 124.05 284.188 124.685 284.188ZM132.795 284.216C133.542 284.216 134.172 284.403 134.685 284.776C135.208 285.149 135.572 285.649 135.777 286.274V284.314H137.051V292H135.777V290.04C135.572 290.665 135.208 291.165 134.685 291.538C134.172 291.911 133.542 292.098 132.795 292.098C132.114 292.098 131.507 291.939 130.975 291.622C130.443 291.305 130.023 290.852 129.715 290.264C129.416 289.667 129.267 288.967 129.267 288.164C129.267 287.361 129.416 286.661 129.715 286.064C130.023 285.467 130.443 285.009 130.975 284.692C131.507 284.375 132.114 284.216 132.795 284.216ZM133.159 285.35C132.375 285.35 131.745 285.602 131.269 286.106C130.802 286.601 130.569 287.287 130.569 288.164C130.569 289.041 130.802 289.732 131.269 290.236C131.745 290.731 132.375 290.978 133.159 290.978C133.663 290.978 134.111 290.861 134.503 290.628C134.904 290.395 135.217 290.068 135.441 289.648C135.665 289.219 135.777 288.724 135.777 288.164C135.777 287.604 135.665 287.109 135.441 286.68C135.217 286.251 134.904 285.924 134.503 285.7C134.111 285.467 133.663 285.35 133.159 285.35ZM138.855 282.06C138.855 281.827 138.934 281.64 139.093 281.5C139.251 281.351 139.461 281.276 139.723 281.276C139.984 281.276 140.194 281.351 140.353 281.5C140.511 281.64 140.591 281.827 140.591 282.06C140.591 282.293 140.511 282.485 140.353 282.634C140.194 282.774 139.984 282.844 139.723 282.844C139.461 282.844 139.251 282.774 139.093 282.634C138.934 282.485 138.855 282.293 138.855 282.06ZM140.353 284.314V292H139.079V284.314H140.353ZM143.675 281.64V292H142.401V281.64H143.675ZM152.332 284.216C153.079 284.216 153.709 284.403 154.222 284.776C154.745 285.149 155.109 285.649 155.314 286.274V284.314H156.588V292H155.314V290.04C155.109 290.665 154.745 291.165 154.222 291.538C153.709 291.911 153.079 292.098 152.332 292.098C151.651 292.098 151.044 291.939 150.512 291.622C149.98 291.305 149.56 290.852 149.252 290.264C148.953 289.667 148.804 288.967 148.804 288.164C148.804 287.361 148.953 286.661 149.252 286.064C149.56 285.467 149.98 285.009 150.512 284.692C151.044 284.375 151.651 284.216 152.332 284.216ZM152.696 285.35C151.912 285.35 151.282 285.602 150.806 286.106C150.339 286.601 150.106 287.287 150.106 288.164C150.106 289.041 150.339 289.732 150.806 290.236C151.282 290.731 151.912 290.978 152.696 290.978C153.2 290.978 153.648 290.861 154.04 290.628C154.441 290.395 154.754 290.068 154.978 289.648C155.202 289.219 155.314 288.724 155.314 288.164C155.314 287.604 155.202 287.109 154.978 286.68C154.754 286.251 154.441 285.924 154.04 285.7C153.648 285.467 153.2 285.35 152.696 285.35ZM161.766 284.216C162.512 284.216 163.142 284.403 163.656 284.776C164.178 285.149 164.542 285.649 164.748 286.274V281.64H166.022V292H164.748V290.04C164.542 290.665 164.178 291.165 163.656 291.538C163.142 291.911 162.512 292.098 161.766 292.098C161.084 292.098 160.478 291.939 159.946 291.622C159.414 291.305 158.994 290.852 158.686 290.264C158.387 289.667 158.238 288.967 158.238 288.164C158.238 287.361 158.387 286.661 158.686 286.064C158.994 285.467 159.414 285.009 159.946 284.692C160.478 284.375 161.084 284.216 161.766 284.216ZM162.13 285.35C161.346 285.35 160.716 285.602 160.24 286.106C159.773 286.601 159.54 287.287 159.54 288.164C159.54 289.041 159.773 289.732 160.24 290.236C160.716 290.731 161.346 290.978 162.13 290.978C162.634 290.978 163.082 290.861 163.474 290.628C163.875 290.395 164.188 290.068 164.412 289.648C164.636 289.219 164.748 288.724 164.748 288.164C164.748 287.604 164.636 287.109 164.412 286.68C164.188 286.251 163.875 285.924 163.474 285.7C163.082 285.467 162.634 285.35 162.13 285.35ZM171.199 284.216C171.946 284.216 172.576 284.403 173.089 284.776C173.612 285.149 173.976 285.649 174.181 286.274V281.64H175.455V292H174.181V290.04C173.976 290.665 173.612 291.165 173.089 291.538C172.576 291.911 171.946 292.098 171.199 292.098C170.518 292.098 169.911 291.939 169.379 291.622C168.847 291.305 168.427 290.852 168.119 290.264C167.821 289.667 167.671 288.967 167.671 288.164C167.671 287.361 167.821 286.661 168.119 286.064C168.427 285.467 168.847 285.009 169.379 284.692C169.911 284.375 170.518 284.216 171.199 284.216ZM171.563 285.35C170.779 285.35 170.149 285.602 169.673 286.106C169.207 286.601 168.973 287.287 168.973 288.164C168.973 289.041 169.207 289.732 169.673 290.236C170.149 290.731 170.779 290.978 171.563 290.978C172.067 290.978 172.515 290.861 172.907 290.628C173.309 290.395 173.621 290.068 173.845 289.648C174.069 289.219 174.181 288.724 174.181 288.164C174.181 287.604 174.069 287.109 173.845 286.68C173.621 286.251 173.309 285.924 172.907 285.7C172.515 285.467 172.067 285.35 171.563 285.35ZM178.757 285.868C179.009 285.336 179.378 284.925 179.863 284.636C180.348 284.337 180.927 284.188 181.599 284.188V285.574H181.207C180.488 285.574 179.9 285.761 179.443 286.134C178.986 286.498 178.757 287.105 178.757 287.954V292H177.483V284.314H178.757V285.868ZM189.926 287.73C189.926 288.001 189.907 288.234 189.87 288.43H183.724C183.752 289.307 183.999 289.965 184.466 290.404C184.942 290.843 185.521 291.062 186.202 291.062C186.818 291.062 187.331 290.908 187.742 290.6C188.162 290.283 188.419 289.863 188.512 289.34H189.87C189.777 289.872 189.567 290.348 189.24 290.768C188.923 291.188 188.507 291.515 187.994 291.748C187.481 291.981 186.902 292.098 186.258 292.098C185.521 292.098 184.867 291.939 184.298 291.622C183.729 291.305 183.281 290.852 182.954 290.264C182.637 289.667 182.478 288.967 182.478 288.164C182.478 287.361 182.637 286.661 182.954 286.064C183.281 285.467 183.729 285.009 184.298 284.692C184.867 284.375 185.521 284.216 186.258 284.216C187.005 284.216 187.653 284.375 188.204 284.692C188.764 285.009 189.189 285.434 189.478 285.966C189.777 286.498 189.926 287.086 189.926 287.73ZM188.638 287.814C188.666 287.245 188.573 286.769 188.358 286.386C188.143 286.003 187.849 285.719 187.476 285.532C187.103 285.345 186.697 285.252 186.258 285.252C185.558 285.252 184.97 285.471 184.494 285.91C184.018 286.339 183.761 286.974 183.724 287.814H188.638ZM194 284.216C194.868 284.216 195.564 284.445 196.086 284.902C196.618 285.35 196.94 285.957 197.052 286.722H195.834C195.778 286.265 195.587 285.891 195.26 285.602C194.943 285.303 194.514 285.154 193.972 285.154C193.515 285.154 193.156 285.266 192.894 285.49C192.642 285.705 192.516 285.999 192.516 286.372C192.516 286.652 192.6 286.881 192.768 287.058C192.946 287.226 193.16 287.357 193.412 287.45C193.674 287.534 194.028 287.627 194.476 287.73C195.046 287.861 195.503 287.996 195.848 288.136C196.203 288.267 196.502 288.481 196.744 288.78C196.996 289.079 197.122 289.48 197.122 289.984C197.122 290.609 196.884 291.118 196.408 291.51C195.942 291.902 195.316 292.098 194.532 292.098C193.618 292.098 192.871 291.879 192.292 291.44C191.714 291.001 191.373 290.39 191.27 289.606H192.502C192.549 290.073 192.75 290.451 193.104 290.74C193.468 291.029 193.944 291.174 194.532 291.174C194.971 291.174 195.312 291.062 195.554 290.838C195.806 290.614 195.932 290.32 195.932 289.956C195.932 289.657 195.844 289.419 195.666 289.242C195.489 289.065 195.27 288.929 195.008 288.836C194.747 288.743 194.388 288.645 193.93 288.542C193.361 288.411 192.904 288.281 192.558 288.15C192.222 288.019 191.933 287.814 191.69 287.534C191.457 287.245 191.34 286.857 191.34 286.372C191.34 285.728 191.578 285.21 192.054 284.818C192.53 284.417 193.179 284.216 194 284.216ZM201.233 284.216C202.101 284.216 202.796 284.445 203.319 284.902C203.851 285.35 204.173 285.957 204.285 286.722H203.067C203.011 286.265 202.819 285.891 202.493 285.602C202.175 285.303 201.746 285.154 201.205 285.154C200.747 285.154 200.388 285.266 200.127 285.49C199.875 285.705 199.749 285.999 199.749 286.372C199.749 286.652 199.833 286.881 200.001 287.058C200.178 287.226 200.393 287.357 200.645 287.45C200.906 287.534 201.261 287.627 201.709 287.73C202.278 287.861 202.735 287.996 203.081 288.136C203.435 288.267 203.734 288.481 203.977 288.78C204.229 289.079 204.355 289.48 204.355 289.984C204.355 290.609 204.117 291.118 203.641 291.51C203.174 291.902 202.549 292.098 201.765 292.098C200.85 292.098 200.103 291.879 199.525 291.44C198.946 291.001 198.605 290.39 198.503 289.606H199.735C199.781 290.073 199.982 290.451 200.337 290.74C200.701 291.029 201.177 291.174 201.765 291.174C202.203 291.174 202.544 291.062 202.787 290.838C203.039 290.614 203.165 290.32 203.165 289.956C203.165 289.657 203.076 289.419 202.899 289.242C202.721 289.065 202.502 288.929 202.241 288.836C201.979 288.743 201.62 288.645 201.163 288.542C200.593 288.411 200.136 288.281 199.791 288.15C199.455 288.019 199.165 287.814 198.923 287.534C198.689 287.245 198.573 286.857 198.573 286.372C198.573 285.728 198.811 285.21 199.287 284.818C199.763 284.417 200.411 284.216 201.233 284.216Z" fill="#8D92A3"/>
<path d="M26.624 337.456V342H25.168V330.72H28.752C30.0427 330.72 31.008 331.024 31.648 331.632C32.288 332.229 32.608 333.051 32.608 334.096C32.608 335.152 32.2773 335.979 31.616 336.576C30.9547 337.163 30 337.456 28.752 337.456H26.624ZM28.624 336.24C29.5093 336.24 30.144 336.053 30.528 335.68C30.9227 335.307 31.12 334.779 31.12 334.096C31.12 333.392 30.9227 332.859 30.528 332.496C30.144 332.123 29.5093 331.936 28.624 331.936H26.624V336.24H28.624ZM37.9086 333.104C38.762 333.104 39.482 333.317 40.0686 333.744C40.666 334.171 41.082 334.741 41.3166 335.456V333.216H42.7726V342H41.3166V339.76C41.082 340.475 40.666 341.045 40.0686 341.472C39.482 341.899 38.762 342.112 37.9086 342.112C37.13 342.112 36.4366 341.931 35.8286 341.568C35.2206 341.205 34.7406 340.688 34.3886 340.016C34.0473 339.333 33.8766 338.533 33.8766 337.616C33.8766 336.699 34.0473 335.899 34.3886 335.216C34.7406 334.533 35.2206 334.011 35.8286 333.648C36.4366 333.285 37.13 333.104 37.9086 333.104ZM38.3246 334.4C37.4286 334.4 36.7086 334.688 36.1646 335.264C35.6313 335.829 35.3646 336.613 35.3646 337.616C35.3646 338.619 35.6313 339.408 36.1646 339.984C36.7086 340.549 37.4286 340.832 38.3246 340.832C38.9006 340.832 39.4126 340.699 39.8606 340.432C40.3193 340.165 40.6766 339.792 40.9326 339.312C41.1886 338.821 41.3166 338.256 41.3166 337.616C41.3166 336.976 41.1886 336.411 40.9326 335.92C40.6766 335.429 40.3193 335.056 39.8606 334.8C39.4126 334.533 38.9006 334.4 38.3246 334.4ZM47.8419 333.104C48.8339 333.104 49.6285 333.365 50.2259 333.888C50.8339 334.4 51.2019 335.093 51.3299 335.968H49.9379C49.8739 335.445 49.6552 335.019 49.2819 334.688C48.9192 334.347 48.4285 334.176 47.8099 334.176C47.2872 334.176 46.8765 334.304 46.5779 334.56C46.2899 334.805 46.1459 335.141 46.1459 335.568C46.1459 335.888 46.2419 336.149 46.4339 336.352C46.6365 336.544 46.8819 336.693 47.1699 336.8C47.4685 336.896 47.8739 337.003 48.3859 337.12C49.0365 337.269 49.5592 337.424 49.9539 337.584C50.3592 337.733 50.7005 337.979 50.9779 338.32C51.2659 338.661 51.4099 339.12 51.4099 339.696C51.4099 340.411 51.1379 340.992 50.5939 341.44C50.0605 341.888 49.3459 342.112 48.4499 342.112C47.4045 342.112 46.5512 341.861 45.8899 341.36C45.2285 340.859 44.8392 340.16 44.7219 339.264H46.1299C46.1832 339.797 46.4125 340.229 46.8179 340.56C47.2339 340.891 47.7779 341.056 48.4499 341.056C48.9512 341.056 49.3405 340.928 49.6179 340.672C49.9059 340.416 50.0499 340.08 50.0499 339.664C50.0499 339.323 49.9485 339.051 49.7459 338.848C49.5432 338.645 49.2925 338.491 48.9939 338.384C48.6952 338.277 48.2845 338.165 47.7619 338.048C47.1112 337.899 46.5885 337.749 46.1939 337.6C45.8099 337.451 45.4792 337.216 45.2019 336.896C44.9352 336.565 44.8019 336.123 44.8019 335.568C44.8019 334.832 45.0739 334.24 45.6179 333.792C46.1619 333.333 46.9032 333.104 47.8419 333.104ZM56.1075 333.104C57.0995 333.104 57.8942 333.365 58.4915 333.888C59.0995 334.4 59.4675 335.093 59.5955 335.968H58.2035C58.1395 335.445 57.9208 335.019 57.5475 334.688C57.1848 334.347 56.6942 334.176 56.0755 334.176C55.5528 334.176 55.1422 334.304 54.8435 334.56C54.5555 334.805 54.4115 335.141 54.4115 335.568C54.4115 335.888 54.5075 336.149 54.6995 336.352C54.9022 336.544 55.1475 336.693 55.4355 336.8C55.7342 336.896 56.1395 337.003 56.6515 337.12C57.3022 337.269 57.8248 337.424 58.2195 337.584C58.6248 337.733 58.9662 337.979 59.2435 338.32C59.5315 338.661 59.6755 339.12 59.6755 339.696C59.6755 340.411 59.4035 340.992 58.8595 341.44C58.3262 341.888 57.6115 342.112 56.7155 342.112C55.6702 342.112 54.8168 341.861 54.1555 341.36C53.4942 340.859 53.1048 340.16 52.9875 339.264H54.3955C54.4488 339.797 54.6782 340.229 55.0835 340.56C55.4995 340.891 56.0435 341.056 56.7155 341.056C57.2168 341.056 57.6062 340.928 57.8835 340.672C58.1715 340.416 58.3155 340.08 58.3155 339.664C58.3155 339.323 58.2142 339.051 58.0115 338.848C57.8088 338.645 57.5582 338.491 57.2595 338.384C56.9608 338.277 56.5502 338.165 56.0275 338.048C55.3768 337.899 54.8542 337.749 54.4595 337.6C54.0755 337.451 53.7448 337.216 53.4675 336.896C53.2008 336.565 53.0675 336.123 53.0675 335.568C53.0675 334.832 53.3395 334.24 53.8835 333.792C54.4275 333.333 55.1688 333.104 56.1075 333.104ZM73.6851 333.216L71.1571 342H69.5891L67.1731 334.848L64.7411 342H63.1571L60.6611 333.216H62.1331L64.0051 340.608L66.4371 333.216H67.9571L70.4051 340.592L72.2931 333.216H73.6851ZM79.027 333.104C79.8697 333.104 80.6217 333.285 81.283 333.648C81.955 334.011 82.4777 334.533 82.851 335.216C83.235 335.899 83.427 336.699 83.427 337.616C83.427 338.533 83.235 339.333 82.851 340.016C82.4777 340.688 81.955 341.205 81.283 341.568C80.6217 341.931 79.8697 342.112 79.027 342.112C78.1843 342.112 77.427 341.931 76.755 341.568C76.0937 341.205 75.571 340.688 75.187 340.016C74.803 339.333 74.611 338.533 74.611 337.616C74.611 336.699 74.803 335.899 75.187 335.216C75.571 334.533 76.0937 334.011 76.755 333.648C77.427 333.285 78.1843 333.104 79.027 333.104ZM79.027 334.384C78.5043 334.384 78.019 334.501 77.571 334.736C77.1337 334.971 76.7763 335.333 76.499 335.824C76.2323 336.304 76.099 336.901 76.099 337.616C76.099 338.32 76.2323 338.917 76.499 339.408C76.7763 339.888 77.1337 340.245 77.571 340.48C78.019 340.715 78.5043 340.832 79.027 340.832C79.5497 340.832 80.0297 340.715 80.467 340.48C80.915 340.245 81.2723 339.888 81.539 339.408C81.8163 338.917 81.955 338.32 81.955 337.616C81.955 336.901 81.8163 336.304 81.539 335.824C81.2723 335.333 80.915 334.971 80.467 334.736C80.0297 334.501 79.5497 334.384 79.027 334.384ZM86.7803 334.992C87.0683 334.384 87.4896 333.915 88.0443 333.584C88.5989 333.243 89.2603 333.072 90.0283 333.072V334.656H89.5803C88.7589 334.656 88.0869 334.869 87.5643 335.296C87.0416 335.712 86.7803 336.405 86.7803 337.376V342H85.3243V333.216H86.7803V334.992ZM95.0649 333.104C95.9182 333.104 96.6382 333.317 97.2249 333.744C97.8222 334.171 98.2382 334.741 98.4729 335.456V330.16H99.9289V342H98.4729V339.76C98.2382 340.475 97.8222 341.045 97.2249 341.472C96.6382 341.899 95.9182 342.112 95.0649 342.112C94.2862 342.112 93.5929 341.931 92.9849 341.568C92.3769 341.205 91.8969 340.688 91.5449 340.016C91.2035 339.333 91.0329 338.533 91.0329 337.616C91.0329 336.699 91.2035 335.899 91.5449 335.216C91.8969 334.533 92.3769 334.011 92.9849 333.648C93.5929 333.285 94.2862 333.104 95.0649 333.104ZM95.4809 334.4C94.5849 334.4 93.8649 334.688 93.3209 335.264C92.7875 335.829 92.5209 336.613 92.5209 337.616C92.5209 338.619 92.7875 339.408 93.3209 339.984C93.8649 340.549 94.5849 340.832 95.4809 340.832C96.0569 340.832 96.5689 340.699 97.0169 340.432C97.4755 340.165 97.8329 339.792 98.0889 339.312C98.3449 338.821 98.4729 338.256 98.4729 337.616C98.4729 336.976 98.3449 336.411 98.0889 335.92C97.8329 335.429 97.4755 335.056 97.0169 334.8C96.5689 334.533 96.0569 334.4 95.4809 334.4Z" fill="#020202"/>
<rect x="24.5" y="354.5" width="311" height="39" rx="7.5" stroke="#020202"/>
<path d="M41.07 368.13V369.166H38.284V378H37.01V369.166H34.224V368.13H41.07ZM42.8685 370.314L45.3605 376.362L47.6705 370.314H49.0845L44.5205 381.64H43.0785L44.6745 377.874L41.4405 370.314H42.8685ZM54.4945 370.216C55.1758 370.216 55.7825 370.375 56.3145 370.692C56.8465 371.009 57.2618 371.467 57.5605 372.064C57.8685 372.661 58.0225 373.361 58.0225 374.164C58.0225 374.967 57.8685 375.667 57.5605 376.264C57.2618 376.852 56.8465 377.305 56.3145 377.622C55.7825 377.939 55.1758 378.098 54.4945 378.098C53.7478 378.098 53.1131 377.911 52.5905 377.538C52.0771 377.155 51.7225 376.656 51.5265 376.04V381.64H50.2525V370.314H51.5265V372.274C51.7225 371.658 52.0771 371.163 52.5905 370.79C53.1131 370.407 53.7478 370.216 54.4945 370.216ZM54.1305 371.35C53.6358 371.35 53.1878 371.467 52.7865 371.7C52.3851 371.924 52.0725 372.251 51.8485 372.68C51.6245 373.109 51.5125 373.604 51.5125 374.164C51.5125 374.724 51.6245 375.219 51.8485 375.648C52.0725 376.068 52.3851 376.395 52.7865 376.628C53.1878 376.861 53.6358 376.978 54.1305 376.978C54.9238 376.978 55.5538 376.731 56.0205 376.236C56.4965 375.732 56.7345 375.041 56.7345 374.164C56.7345 373.287 56.4965 372.601 56.0205 372.106C55.5538 371.602 54.9238 371.35 54.1305 371.35ZM66.7561 373.73C66.7561 374.001 66.7374 374.234 66.7001 374.43H60.5541C60.5821 375.307 60.8294 375.965 61.2961 376.404C61.7721 376.843 62.3507 377.062 63.0321 377.062C63.6481 377.062 64.1614 376.908 64.5721 376.6C64.9921 376.283 65.2487 375.863 65.3421 375.34H66.7001C66.6067 375.872 66.3967 376.348 66.0701 376.768C65.7527 377.188 65.3374 377.515 64.8241 377.748C64.3107 377.981 63.7321 378.098 63.0881 378.098C62.3507 378.098 61.6974 377.939 61.1281 377.622C60.5587 377.305 60.1107 376.852 59.7841 376.264C59.4667 375.667 59.3081 374.967 59.3081 374.164C59.3081 373.361 59.4667 372.661 59.7841 372.064C60.1107 371.467 60.5587 371.009 61.1281 370.692C61.6974 370.375 62.3507 370.216 63.0881 370.216C63.8347 370.216 64.4834 370.375 65.0341 370.692C65.5941 371.009 66.0187 371.434 66.3081 371.966C66.6067 372.498 66.7561 373.086 66.7561 373.73ZM65.4681 373.814C65.4961 373.245 65.4027 372.769 65.1881 372.386C64.9734 372.003 64.6794 371.719 64.3061 371.532C63.9327 371.345 63.5267 371.252 63.0881 371.252C62.3881 371.252 61.8001 371.471 61.3241 371.91C60.8481 372.339 60.5914 372.974 60.5541 373.814H65.4681ZM72.4134 370.314L74.9054 376.362L77.2154 370.314H78.6294L74.0654 381.64H72.6234L74.2194 377.874L70.9854 370.314H72.4134ZM83.2834 370.216C84.0207 370.216 84.6787 370.375 85.2574 370.692C85.8454 371.009 86.3027 371.467 86.6294 372.064C86.9654 372.661 87.1334 373.361 87.1334 374.164C87.1334 374.967 86.9654 375.667 86.6294 376.264C86.3027 376.852 85.8454 377.305 85.2574 377.622C84.6787 377.939 84.0207 378.098 83.2834 378.098C82.5461 378.098 81.8834 377.939 81.2954 377.622C80.7167 377.305 80.2594 376.852 79.9234 376.264C79.5874 375.667 79.4194 374.967 79.4194 374.164C79.4194 373.361 79.5874 372.661 79.9234 372.064C80.2594 371.467 80.7167 371.009 81.2954 370.692C81.8834 370.375 82.5461 370.216 83.2834 370.216ZM83.2834 371.336C82.8261 371.336 82.4014 371.439 82.0094 371.644C81.6267 371.849 81.3141 372.167 81.0714 372.596C80.8381 373.016 80.7214 373.539 80.7214 374.164C80.7214 374.78 80.8381 375.303 81.0714 375.732C81.3141 376.152 81.6267 376.465 82.0094 376.67C82.4014 376.875 82.8261 376.978 83.2834 376.978C83.7407 376.978 84.1607 376.875 84.5434 376.67C84.9354 376.465 85.2481 376.152 85.4814 375.732C85.7241 375.303 85.8454 374.78 85.8454 374.164C85.8454 373.539 85.7241 373.016 85.4814 372.596C85.2481 372.167 84.9354 371.849 84.5434 371.644C84.1607 371.439 83.7407 371.336 83.2834 371.336ZM95.6255 370.314V378H94.3515V376.194C94.1555 376.819 93.8055 377.3 93.3015 377.636C92.8068 377.963 92.2282 378.126 91.5655 378.126C90.6788 378.126 89.9602 377.841 89.4095 377.272C88.8588 376.693 88.5835 375.867 88.5835 374.794V370.314H89.8575V374.668C89.8575 375.433 90.0535 376.026 90.4455 376.446C90.8375 376.857 91.3695 377.062 92.0415 377.062C92.7415 377.062 93.3015 376.838 93.7215 376.39C94.1415 375.933 94.3515 375.27 94.3515 374.402V370.314H95.6255ZM98.9405 371.868C99.1925 371.336 99.5612 370.925 100.047 370.636C100.532 370.337 101.111 370.188 101.783 370.188V371.574H101.391C100.672 371.574 100.084 371.761 99.6265 372.134C99.1692 372.498 98.9405 373.105 98.9405 373.954V378H97.6665V370.314H98.9405V371.868ZM110.741 370.216C111.422 370.216 112.029 370.375 112.561 370.692C113.093 371.009 113.508 371.467 113.807 372.064C114.115 372.661 114.269 373.361 114.269 374.164C114.269 374.967 114.115 375.667 113.807 376.264C113.508 376.852 113.093 377.305 112.561 377.622C112.029 377.939 111.422 378.098 110.741 378.098C109.994 378.098 109.359 377.911 108.837 377.538C108.323 377.155 107.969 376.656 107.773 376.04V381.64H106.499V370.314H107.773V372.274C107.969 371.658 108.323 371.163 108.837 370.79C109.359 370.407 109.994 370.216 110.741 370.216ZM110.377 371.35C109.882 371.35 109.434 371.467 109.033 371.7C108.631 371.924 108.319 372.251 108.095 372.68C107.871 373.109 107.759 373.604 107.759 374.164C107.759 374.724 107.871 375.219 108.095 375.648C108.319 376.068 108.631 376.395 109.033 376.628C109.434 376.861 109.882 376.978 110.377 376.978C111.17 376.978 111.8 376.731 112.267 376.236C112.743 375.732 112.981 375.041 112.981 374.164C112.981 373.287 112.743 372.601 112.267 372.106C111.8 371.602 111.17 371.35 110.377 371.35ZM119.082 370.216C119.829 370.216 120.459 370.403 120.972 370.776C121.495 371.149 121.859 371.649 122.064 372.274V370.314H123.338V378H122.064V376.04C121.859 376.665 121.495 377.165 120.972 377.538C120.459 377.911 119.829 378.098 119.082 378.098C118.401 378.098 117.794 377.939 117.262 377.622C116.73 377.305 116.31 376.852 116.002 376.264C115.703 375.667 115.554 374.967 115.554 374.164C115.554 373.361 115.703 372.661 116.002 372.064C116.31 371.467 116.73 371.009 117.262 370.692C117.794 370.375 118.401 370.216 119.082 370.216ZM119.446 371.35C118.662 371.35 118.032 371.602 117.556 372.106C117.089 372.601 116.856 373.287 116.856 374.164C116.856 375.041 117.089 375.732 117.556 376.236C118.032 376.731 118.662 376.978 119.446 376.978C119.95 376.978 120.398 376.861 120.79 376.628C121.191 376.395 121.504 376.068 121.728 375.648C121.952 375.219 122.064 374.724 122.064 374.164C122.064 373.604 121.952 373.109 121.728 372.68C121.504 372.251 121.191 371.924 120.79 371.7C120.398 371.467 119.95 371.35 119.446 371.35ZM127.774 370.216C128.642 370.216 129.337 370.445 129.86 370.902C130.392 371.35 130.714 371.957 130.826 372.722H129.608C129.552 372.265 129.36 371.891 129.034 371.602C128.716 371.303 128.287 371.154 127.746 371.154C127.288 371.154 126.929 371.266 126.668 371.49C126.416 371.705 126.29 371.999 126.29 372.372C126.29 372.652 126.374 372.881 126.542 373.058C126.719 373.226 126.934 373.357 127.186 373.45C127.447 373.534 127.802 373.627 128.25 373.73C128.819 373.861 129.276 373.996 129.622 374.136C129.976 374.267 130.275 374.481 130.518 374.78C130.77 375.079 130.896 375.48 130.896 375.984C130.896 376.609 130.658 377.118 130.182 377.51C129.715 377.902 129.09 378.098 128.306 378.098C127.391 378.098 126.644 377.879 126.066 377.44C125.487 377.001 125.146 376.39 125.044 375.606H126.276C126.322 376.073 126.523 376.451 126.878 376.74C127.242 377.029 127.718 377.174 128.306 377.174C128.744 377.174 129.085 377.062 129.328 376.838C129.58 376.614 129.706 376.32 129.706 375.956C129.706 375.657 129.617 375.419 129.44 375.242C129.262 375.065 129.043 374.929 128.782 374.836C128.52 374.743 128.161 374.645 127.704 374.542C127.134 374.411 126.677 374.281 126.332 374.15C125.996 374.019 125.706 373.814 125.464 373.534C125.23 373.245 125.114 372.857 125.114 372.372C125.114 371.728 125.352 371.21 125.828 370.818C126.304 370.417 126.952 370.216 127.774 370.216ZM135.006 370.216C135.874 370.216 136.57 370.445 137.092 370.902C137.624 371.35 137.946 371.957 138.058 372.722H136.84C136.784 372.265 136.593 371.891 136.266 371.602C135.949 371.303 135.52 371.154 134.978 371.154C134.521 371.154 134.162 371.266 133.9 371.49C133.648 371.705 133.522 371.999 133.522 372.372C133.522 372.652 133.606 372.881 133.774 373.058C133.952 373.226 134.166 373.357 134.418 373.45C134.68 373.534 135.034 373.627 135.482 373.73C136.052 373.861 136.509 373.996 136.854 374.136C137.209 374.267 137.508 374.481 137.75 374.78C138.002 375.079 138.128 375.48 138.128 375.984C138.128 376.609 137.89 377.118 137.414 377.51C136.948 377.902 136.322 378.098 135.538 378.098C134.624 378.098 133.877 377.879 133.298 377.44C132.72 377.001 132.379 376.39 132.276 375.606H133.508C133.555 376.073 133.756 376.451 134.11 376.74C134.474 377.029 134.95 377.174 135.538 377.174C135.977 377.174 136.318 377.062 136.56 376.838C136.812 376.614 136.938 376.32 136.938 375.956C136.938 375.657 136.85 375.419 136.672 375.242C136.495 375.065 136.276 374.929 136.014 374.836C135.753 374.743 135.394 374.645 134.936 374.542C134.367 374.411 133.91 374.281 133.564 374.15C133.228 374.019 132.939 373.814 132.696 373.534C132.463 373.245 132.346 372.857 132.346 372.372C132.346 371.728 132.584 371.21 133.06 370.818C133.536 370.417 134.185 370.216 135.006 370.216ZM150.387 370.314L148.175 378H146.803L144.689 371.742L142.561 378H141.175L138.991 370.314H140.279L141.917 376.782L144.045 370.314H145.375L147.517 376.768L149.169 370.314H150.387ZM155.061 370.216C155.798 370.216 156.456 370.375 157.035 370.692C157.623 371.009 158.08 371.467 158.407 372.064C158.743 372.661 158.911 373.361 158.911 374.164C158.911 374.967 158.743 375.667 158.407 376.264C158.08 376.852 157.623 377.305 157.035 377.622C156.456 377.939 155.798 378.098 155.061 378.098C154.323 378.098 153.661 377.939 153.073 377.622C152.494 377.305 152.037 376.852 151.701 376.264C151.365 375.667 151.197 374.967 151.197 374.164C151.197 373.361 151.365 372.661 151.701 372.064C152.037 371.467 152.494 371.009 153.073 370.692C153.661 370.375 154.323 370.216 155.061 370.216ZM155.061 371.336C154.603 371.336 154.179 371.439 153.787 371.644C153.404 371.849 153.091 372.167 152.849 372.596C152.615 373.016 152.499 373.539 152.499 374.164C152.499 374.78 152.615 375.303 152.849 375.732C153.091 376.152 153.404 376.465 153.787 376.67C154.179 376.875 154.603 376.978 155.061 376.978C155.518 376.978 155.938 376.875 156.321 376.67C156.713 376.465 157.025 376.152 157.259 375.732C157.501 375.303 157.623 374.78 157.623 374.164C157.623 373.539 157.501 373.016 157.259 372.596C157.025 372.167 156.713 371.849 156.321 371.644C155.938 371.439 155.518 371.336 155.061 371.336ZM161.845 371.868C162.097 371.336 162.465 370.925 162.951 370.636C163.436 370.337 164.015 370.188 164.687 370.188V371.574H164.295C163.576 371.574 162.988 371.761 162.531 372.134C162.073 372.498 161.845 373.105 161.845 373.954V378H160.571V370.314H161.845V371.868ZM169.094 370.216C169.841 370.216 170.471 370.403 170.984 370.776C171.507 371.149 171.871 371.649 172.076 372.274V367.64H173.35V378H172.076V376.04C171.871 376.665 171.507 377.165 170.984 377.538C170.471 377.911 169.841 378.098 169.094 378.098C168.413 378.098 167.806 377.939 167.274 377.622C166.742 377.305 166.322 376.852 166.014 376.264C165.715 375.667 165.566 374.967 165.566 374.164C165.566 373.361 165.715 372.661 166.014 372.064C166.322 371.467 166.742 371.009 167.274 370.692C167.806 370.375 168.413 370.216 169.094 370.216ZM169.458 371.35C168.674 371.35 168.044 371.602 167.568 372.106C167.101 372.601 166.868 373.287 166.868 374.164C166.868 375.041 167.101 375.732 167.568 376.236C168.044 376.731 168.674 376.978 169.458 376.978C169.962 376.978 170.41 376.861 170.802 376.628C171.203 376.395 171.516 376.068 171.74 375.648C171.964 375.219 172.076 374.724 172.076 374.164C172.076 373.604 171.964 373.109 171.74 372.68C171.516 372.251 171.203 371.924 170.802 371.7C170.41 371.467 169.962 371.35 169.458 371.35Z" fill="#8D92A3"/>
<rect x="24" y="418" width="312" height="45" rx="8" fill="#02CF8E"/>
<path d="M152.597 435.018C153.81 435.018 154.818 435.326 155.621 435.942C156.423 436.558 156.965 437.393 157.245 438.448H155.551C155.317 437.851 154.944 437.379 154.431 437.034C153.927 436.679 153.306 436.502 152.569 436.502C151.981 436.502 151.453 436.647 150.987 436.936C150.529 437.225 150.165 437.641 149.895 438.182C149.633 438.714 149.503 439.339 149.503 440.058C149.503 440.767 149.633 441.393 149.895 441.934C150.165 442.466 150.529 442.877 150.987 443.166C151.453 443.455 151.981 443.6 152.569 443.6C153.306 443.6 153.927 443.427 154.431 443.082C154.944 442.727 155.317 442.256 155.551 441.668H157.245C156.965 442.723 156.423 443.558 155.621 444.174C154.818 444.781 153.81 445.084 152.597 445.084C151.663 445.084 150.837 444.874 150.119 444.454C149.4 444.025 148.845 443.432 148.453 442.676C148.061 441.911 147.865 441.038 147.865 440.058C147.865 439.078 148.061 438.21 148.453 437.454C148.845 436.689 149.4 436.091 150.119 435.662C150.837 435.233 151.663 435.018 152.597 435.018ZM162.365 437.188C163.112 437.188 163.784 437.347 164.381 437.664C164.978 437.981 165.445 438.439 165.781 439.036C166.117 439.633 166.285 440.333 166.285 441.136C166.285 441.948 166.117 442.653 165.781 443.25C165.445 443.847 164.978 444.305 164.381 444.622C163.784 444.939 163.112 445.098 162.365 445.098C161.618 445.098 160.946 444.939 160.349 444.622C159.761 444.305 159.294 443.847 158.949 443.25C158.613 442.643 158.445 441.939 158.445 441.136C158.445 440.333 158.613 439.633 158.949 439.036C159.294 438.439 159.761 437.981 160.349 437.664C160.946 437.347 161.618 437.188 162.365 437.188ZM162.365 438.574C161.954 438.574 161.576 438.667 161.231 438.854C160.886 439.041 160.606 439.33 160.391 439.722C160.186 440.105 160.083 440.576 160.083 441.136C160.083 441.705 160.186 442.181 160.391 442.564C160.606 442.947 160.886 443.231 161.231 443.418C161.576 443.605 161.954 443.698 162.365 443.698C162.776 443.698 163.154 443.605 163.499 443.418C163.844 443.231 164.12 442.947 164.325 442.564C164.54 442.181 164.647 441.705 164.647 441.136C164.647 440.576 164.54 440.105 164.325 439.722C164.12 439.33 163.844 439.041 163.499 438.854C163.154 438.667 162.776 438.574 162.365 438.574ZM172.132 437.16C173.028 437.16 173.746 437.449 174.288 438.028C174.829 438.607 175.1 439.433 175.1 440.506V445H173.504V440.674C173.504 439.983 173.326 439.451 172.972 439.078C172.617 438.695 172.132 438.504 171.516 438.504C170.881 438.504 170.372 438.709 169.99 439.12C169.607 439.521 169.416 440.114 169.416 440.898V445H167.82V437.286H169.416V438.98C169.621 438.401 169.966 437.953 170.452 437.636C170.937 437.319 171.497 437.16 172.132 437.16ZM180.844 443.614V445H179.864C179.043 445 178.417 444.804 177.988 444.412C177.568 444.011 177.358 443.348 177.358 442.424V438.644H176.252V437.286H177.358V435.368H178.968V437.286H180.83V438.644H178.968V442.452C178.968 442.891 179.047 443.194 179.206 443.362C179.374 443.53 179.663 443.614 180.074 443.614H180.844ZM182.115 435.046C182.115 434.775 182.208 434.551 182.395 434.374C182.582 434.197 182.829 434.108 183.137 434.108C183.445 434.108 183.692 434.197 183.879 434.374C184.075 434.551 184.173 434.775 184.173 435.046C184.173 435.317 184.075 435.536 183.879 435.704C183.692 435.872 183.445 435.956 183.137 435.956C182.829 435.956 182.582 435.872 182.395 435.704C182.208 435.536 182.115 435.317 182.115 435.046ZM183.935 437.286V445H182.339V437.286H183.935ZM190.178 437.16C191.074 437.16 191.793 437.449 192.334 438.028C192.876 438.607 193.146 439.433 193.146 440.506V445H191.55V440.674C191.55 439.983 191.373 439.451 191.018 439.078C190.664 438.695 190.178 438.504 189.562 438.504C188.928 438.504 188.419 438.709 188.036 439.12C187.654 439.521 187.462 440.114 187.462 440.898V445H185.866V437.286H187.462V438.98C187.668 438.401 188.013 437.953 188.498 437.636C188.984 437.319 189.544 437.16 190.178 437.16ZM202.125 437.286V445H200.515V443.32C200.319 443.889 199.978 444.333 199.493 444.65C199.008 444.958 198.443 445.112 197.799 445.112C196.903 445.112 196.184 444.823 195.643 444.244C195.102 443.665 194.831 442.839 194.831 441.766V437.286H196.427V441.598C196.427 442.298 196.604 442.839 196.959 443.222C197.314 443.595 197.799 443.782 198.415 443.782C199.05 443.782 199.558 443.577 199.941 443.166C200.324 442.755 200.515 442.158 200.515 441.374V437.286H202.125ZM211.204 440.772C211.204 441.033 211.186 441.262 211.148 441.458H205.212C205.24 442.251 205.46 442.839 205.87 443.222C206.281 443.605 206.79 443.796 207.396 443.796C207.928 443.796 208.376 443.661 208.74 443.39C209.114 443.119 209.342 442.76 209.426 442.312H211.134C211.032 442.853 210.817 443.334 210.49 443.754C210.164 444.174 209.739 444.505 209.216 444.748C208.694 444.981 208.11 445.098 207.466 445.098C206.72 445.098 206.057 444.939 205.478 444.622C204.909 444.305 204.461 443.847 204.134 443.25C203.808 442.653 203.644 441.948 203.644 441.136C203.644 440.333 203.808 439.633 204.134 439.036C204.461 438.439 204.909 437.981 205.478 437.664C206.057 437.347 206.72 437.188 207.466 437.188C208.222 437.188 208.88 437.347 209.44 437.664C210.01 437.972 210.444 438.401 210.742 438.952C211.05 439.493 211.204 440.1 211.204 440.772ZM209.594 440.73C209.613 440.226 209.524 439.806 209.328 439.47C209.142 439.125 208.88 438.873 208.544 438.714C208.218 438.546 207.858 438.462 207.466 438.462C206.841 438.462 206.318 438.653 205.898 439.036C205.478 439.419 205.25 439.983 205.212 440.73H209.594Z" fill="#020202"/>
</svg>
